<mxfile host="app.diagrams.net" agent="Mozilla/5.0 (X11; Linux x86_64) AppleWebKit/537.36 (KHTML, like Gecko) Chrome/130.0.0.0 Safari/537.36" version="24.8.4">
  <diagram name="Страница — 1" id="M3-d7XwUdVGt5cVRJlfs">
    <mxGraphModel dx="2446" dy="1915" grid="1" gridSize="10" guides="1" tooltips="1" connect="1" arrows="1" fold="1" page="1" pageScale="1" pageWidth="827" pageHeight="1169" math="0" shadow="0">
      <root>
        <mxCell id="0" />
        <mxCell id="1" parent="0" />
        <mxCell id="S_L64pyaiKB36YKx_55z-5" style="edgeStyle=orthogonalEdgeStyle;rounded=0;orthogonalLoop=1;jettySize=auto;html=1;exitX=0.5;exitY=0.5;exitDx=0;exitDy=0;exitPerimeter=0;entryX=0;entryY=0.5;entryDx=0;entryDy=0;endArrow=none;endFill=0;targetPerimeterSpacing=0;sourcePerimeterSpacing=-1;startSize=0;" parent="1" source="S_L64pyaiKB36YKx_55z-1" target="S_L64pyaiKB36YKx_55z-4" edge="1">
          <mxGeometry relative="1" as="geometry" />
        </mxCell>
        <mxCell id="S_L64pyaiKB36YKx_55z-16" style="rounded=0;orthogonalLoop=1;jettySize=auto;html=1;exitX=0.5;exitY=0.5;exitDx=0;exitDy=0;exitPerimeter=0;entryX=0;entryY=0.5;entryDx=0;entryDy=0;endArrow=none;endFill=0;" parent="1" source="S_L64pyaiKB36YKx_55z-1" target="S_L64pyaiKB36YKx_55z-14" edge="1">
          <mxGeometry relative="1" as="geometry" />
        </mxCell>
        <mxCell id="S_L64pyaiKB36YKx_55z-1" value="Пользователь" style="shape=umlActor;verticalLabelPosition=bottom;verticalAlign=top;html=1;" parent="1" vertex="1">
          <mxGeometry x="-420" y="-514" width="30" height="60" as="geometry" />
        </mxCell>
        <mxCell id="S_L64pyaiKB36YKx_55z-4" value="Запись на прием" style="ellipse;whiteSpace=wrap;html=1;" parent="1" vertex="1">
          <mxGeometry x="-230" y="-519" width="120" height="70" as="geometry" />
        </mxCell>
        <mxCell id="S_L64pyaiKB36YKx_55z-6" value="Выбор услуги" style="ellipse;whiteSpace=wrap;html=1;" parent="1" vertex="1">
          <mxGeometry x="155" y="-494" width="140" height="70" as="geometry" />
        </mxCell>
        <mxCell id="S_L64pyaiKB36YKx_55z-7" value="Подтверждение" style="ellipse;whiteSpace=wrap;html=1;" parent="1" vertex="1">
          <mxGeometry x="-330" y="-364" width="140" height="70" as="geometry" />
        </mxCell>
        <mxCell id="S_L64pyaiKB36YKx_55z-8" value="Выбор даты и времени" style="ellipse;whiteSpace=wrap;html=1;" parent="1" vertex="1">
          <mxGeometry x="-150" y="-364" width="140" height="70" as="geometry" />
        </mxCell>
        <mxCell id="S_L64pyaiKB36YKx_55z-9" value="Выбор региона" style="ellipse;whiteSpace=wrap;html=1;" parent="1" vertex="1">
          <mxGeometry x="155" y="-754" width="140" height="70" as="geometry" />
        </mxCell>
        <mxCell id="S_L64pyaiKB36YKx_55z-10" value="Выбрать пациента" style="ellipse;whiteSpace=wrap;html=1;" parent="1" vertex="1">
          <mxGeometry x="85" y="-914" width="140" height="70" as="geometry" />
        </mxCell>
        <mxCell id="S_L64pyaiKB36YKx_55z-12" value="Выбор способа записи" style="ellipse;whiteSpace=wrap;html=1;" parent="1" vertex="1">
          <mxGeometry x="155" y="-364" width="140" height="70" as="geometry" />
        </mxCell>
        <mxCell id="S_L64pyaiKB36YKx_55z-13" value="Выбор больницы" style="ellipse;whiteSpace=wrap;html=1;" parent="1" vertex="1">
          <mxGeometry x="155" y="-624" width="140" height="70" as="geometry" />
        </mxCell>
        <mxCell id="S_L64pyaiKB36YKx_55z-14" value="Авторизация" style="ellipse;whiteSpace=wrap;html=1;" parent="1" vertex="1">
          <mxGeometry x="-240" y="-724" width="140" height="70" as="geometry" />
        </mxCell>
        <mxCell id="S_L64pyaiKB36YKx_55z-17" value="&amp;lt;&amp;lt;include&amp;gt;&amp;gt;" style="html=1;verticalAlign=bottom;labelBackgroundColor=none;endArrow=open;endFill=0;dashed=1;rounded=0;exitX=0.5;exitY=0;exitDx=0;exitDy=0;entryX=0.5;entryY=1;entryDx=0;entryDy=0;" parent="1" source="S_L64pyaiKB36YKx_55z-4" target="S_L64pyaiKB36YKx_55z-14" edge="1">
          <mxGeometry width="160" relative="1" as="geometry">
            <mxPoint x="-40" y="-364" as="sourcePoint" />
            <mxPoint x="120" y="-364" as="targetPoint" />
          </mxGeometry>
        </mxCell>
        <mxCell id="S_L64pyaiKB36YKx_55z-18" value="&amp;lt;&amp;lt;include&amp;gt;&amp;gt;" style="html=1;verticalAlign=bottom;labelBackgroundColor=none;endArrow=open;endFill=0;dashed=1;rounded=0;exitX=1;exitY=0.5;exitDx=0;exitDy=0;entryX=0;entryY=0.5;entryDx=0;entryDy=0;" parent="1" source="S_L64pyaiKB36YKx_55z-4" target="S_L64pyaiKB36YKx_55z-9" edge="1">
          <mxGeometry width="160" relative="1" as="geometry">
            <mxPoint x="-40" y="-364" as="sourcePoint" />
            <mxPoint x="120" y="-364" as="targetPoint" />
          </mxGeometry>
        </mxCell>
        <mxCell id="S_L64pyaiKB36YKx_55z-19" value="&amp;lt;&amp;lt;include&amp;gt;&amp;gt;" style="html=1;verticalAlign=bottom;labelBackgroundColor=none;endArrow=open;endFill=0;dashed=1;rounded=0;exitX=1;exitY=0.5;exitDx=0;exitDy=0;entryX=0;entryY=1;entryDx=0;entryDy=0;" parent="1" source="S_L64pyaiKB36YKx_55z-4" target="S_L64pyaiKB36YKx_55z-10" edge="1">
          <mxGeometry x="0.2082" y="16" width="160" relative="1" as="geometry">
            <mxPoint x="-30" y="-494" as="sourcePoint" />
            <mxPoint x="130" y="-494" as="targetPoint" />
            <mxPoint as="offset" />
          </mxGeometry>
        </mxCell>
        <mxCell id="S_L64pyaiKB36YKx_55z-20" value="Выбрать др. человека" style="ellipse;whiteSpace=wrap;html=1;" parent="1" vertex="1">
          <mxGeometry x="295" y="-824" width="140" height="70" as="geometry" />
        </mxCell>
        <mxCell id="S_L64pyaiKB36YKx_55z-21" value="Выбрать ребенка" style="ellipse;whiteSpace=wrap;html=1;" parent="1" vertex="1">
          <mxGeometry x="295" y="-914" width="140" height="70" as="geometry" />
        </mxCell>
        <mxCell id="S_L64pyaiKB36YKx_55z-22" value="Выбрать себя" style="ellipse;whiteSpace=wrap;html=1;" parent="1" vertex="1">
          <mxGeometry x="295" y="-1004" width="140" height="70" as="geometry" />
        </mxCell>
        <mxCell id="S_L64pyaiKB36YKx_55z-26" value="" style="endArrow=block;endSize=16;endFill=0;html=1;rounded=0;exitX=0;exitY=0.5;exitDx=0;exitDy=0;entryX=1;entryY=0.5;entryDx=0;entryDy=0;edgeStyle=orthogonalEdgeStyle;" parent="1" source="S_L64pyaiKB36YKx_55z-22" target="S_L64pyaiKB36YKx_55z-10" edge="1">
          <mxGeometry width="160" relative="1" as="geometry">
            <mxPoint x="-55" y="-884" as="sourcePoint" />
            <mxPoint x="105" y="-884" as="targetPoint" />
          </mxGeometry>
        </mxCell>
        <mxCell id="S_L64pyaiKB36YKx_55z-27" value="" style="endArrow=block;endSize=16;endFill=0;html=1;rounded=0;exitX=0;exitY=0.5;exitDx=0;exitDy=0;entryX=1;entryY=0.5;entryDx=0;entryDy=0;edgeStyle=orthogonalEdgeStyle;" parent="1" source="S_L64pyaiKB36YKx_55z-21" target="S_L64pyaiKB36YKx_55z-10" edge="1">
          <mxGeometry width="160" relative="1" as="geometry">
            <mxPoint x="-55" y="-884" as="sourcePoint" />
            <mxPoint x="105" y="-884" as="targetPoint" />
          </mxGeometry>
        </mxCell>
        <mxCell id="S_L64pyaiKB36YKx_55z-28" value="" style="endArrow=block;endSize=16;endFill=0;html=1;rounded=0;entryX=1;entryY=0.5;entryDx=0;entryDy=0;exitX=0;exitY=0.5;exitDx=0;exitDy=0;edgeStyle=orthogonalEdgeStyle;" parent="1" source="S_L64pyaiKB36YKx_55z-20" target="S_L64pyaiKB36YKx_55z-10" edge="1">
          <mxGeometry width="160" relative="1" as="geometry">
            <mxPoint x="95" y="-774" as="sourcePoint" />
            <mxPoint x="255" y="-774" as="targetPoint" />
          </mxGeometry>
        </mxCell>
        <mxCell id="S_L64pyaiKB36YKx_55z-30" value="&amp;lt;&amp;lt;include&amp;gt;&amp;gt;" style="html=1;verticalAlign=bottom;labelBackgroundColor=none;endArrow=open;endFill=0;dashed=1;rounded=0;exitX=1;exitY=0.5;exitDx=0;exitDy=0;entryX=0;entryY=0.5;entryDx=0;entryDy=0;" parent="1" source="S_L64pyaiKB36YKx_55z-4" target="S_L64pyaiKB36YKx_55z-6" edge="1">
          <mxGeometry width="160" relative="1" as="geometry">
            <mxPoint x="-30" y="-494" as="sourcePoint" />
            <mxPoint x="130" y="-494" as="targetPoint" />
          </mxGeometry>
        </mxCell>
        <mxCell id="S_L64pyaiKB36YKx_55z-31" value="&amp;lt;&amp;lt;include&amp;gt;&amp;gt;" style="html=1;verticalAlign=bottom;labelBackgroundColor=none;endArrow=open;endFill=0;dashed=1;rounded=0;exitX=1;exitY=0.5;exitDx=0;exitDy=0;entryX=0;entryY=0.5;entryDx=0;entryDy=0;" parent="1" source="S_L64pyaiKB36YKx_55z-4" target="S_L64pyaiKB36YKx_55z-13" edge="1">
          <mxGeometry x="0.1597" y="17" width="160" relative="1" as="geometry">
            <mxPoint x="-30" y="-394" as="sourcePoint" />
            <mxPoint x="130" y="-394" as="targetPoint" />
            <mxPoint as="offset" />
          </mxGeometry>
        </mxCell>
        <mxCell id="S_L64pyaiKB36YKx_55z-32" value="&amp;lt;&amp;lt;include&amp;gt;&amp;gt;" style="html=1;verticalAlign=bottom;labelBackgroundColor=none;endArrow=open;endFill=0;dashed=1;rounded=0;exitX=0.5;exitY=1;exitDx=0;exitDy=0;entryX=0.5;entryY=0;entryDx=0;entryDy=0;" parent="1" source="S_L64pyaiKB36YKx_55z-4" target="S_L64pyaiKB36YKx_55z-7" edge="1">
          <mxGeometry x="0.2613" y="-34" width="160" relative="1" as="geometry">
            <mxPoint x="-140" y="-544" as="sourcePoint" />
            <mxPoint x="20" y="-544" as="targetPoint" />
            <mxPoint x="1" as="offset" />
          </mxGeometry>
        </mxCell>
        <mxCell id="S_L64pyaiKB36YKx_55z-33" value="&amp;lt;&amp;lt;include&amp;gt;&amp;gt;" style="html=1;verticalAlign=bottom;labelBackgroundColor=none;endArrow=open;endFill=0;dashed=1;rounded=0;exitX=0.5;exitY=1;exitDx=0;exitDy=0;entryX=0.5;entryY=0;entryDx=0;entryDy=0;" parent="1" source="S_L64pyaiKB36YKx_55z-4" target="S_L64pyaiKB36YKx_55z-8" edge="1">
          <mxGeometry x="0.1709" y="18" width="160" relative="1" as="geometry">
            <mxPoint x="-140" y="-544" as="sourcePoint" />
            <mxPoint x="20" y="-544" as="targetPoint" />
            <mxPoint x="-1" as="offset" />
          </mxGeometry>
        </mxCell>
        <mxCell id="S_L64pyaiKB36YKx_55z-34" value="&amp;lt;&amp;lt;include&amp;gt;&amp;gt;" style="html=1;verticalAlign=bottom;labelBackgroundColor=none;endArrow=open;endFill=0;dashed=1;rounded=0;exitX=1;exitY=0.5;exitDx=0;exitDy=0;entryX=0.5;entryY=0;entryDx=0;entryDy=0;" parent="1" source="S_L64pyaiKB36YKx_55z-4" target="S_L64pyaiKB36YKx_55z-12" edge="1">
          <mxGeometry x="0.1088" y="-14" width="160" relative="1" as="geometry">
            <mxPoint x="-140" y="-544" as="sourcePoint" />
            <mxPoint x="20" y="-544" as="targetPoint" />
            <mxPoint as="offset" />
          </mxGeometry>
        </mxCell>
        <mxCell id="S_L64pyaiKB36YKx_55z-35" value="По направлению" style="ellipse;whiteSpace=wrap;html=1;" parent="1" vertex="1">
          <mxGeometry x="295" y="-214" width="140" height="70" as="geometry" />
        </mxCell>
        <mxCell id="S_L64pyaiKB36YKx_55z-37" value="Выбрать врача самостоятельно" style="ellipse;whiteSpace=wrap;html=1;" parent="1" vertex="1">
          <mxGeometry x="15" y="-214" width="140" height="70" as="geometry" />
        </mxCell>
        <mxCell id="S_L64pyaiKB36YKx_55z-43" value="&lt;b style=&quot;font-size: 25px; text-wrap-mode: nowrap;&quot;&gt;Госуслуги&lt;/b&gt;" style="shape=umlFrame;whiteSpace=wrap;html=1;pointerEvents=0;recursiveResize=0;container=1;collapsible=0;width=200;height=70;" parent="1" vertex="1">
          <mxGeometry x="-460" y="-1034" width="930" height="900" as="geometry" />
        </mxCell>
        <mxCell id="1yXtOOQDGPh8vudGGYga-1" value="Extends" style="endArrow=block;endSize=16;endFill=0;html=1;rounded=0;exitX=0.5;exitY=0;exitDx=0;exitDy=0;entryX=0;entryY=1;entryDx=0;entryDy=0;" edge="1" parent="1" source="S_L64pyaiKB36YKx_55z-37" target="S_L64pyaiKB36YKx_55z-12">
          <mxGeometry width="160" relative="1" as="geometry">
            <mxPoint x="40" y="-320" as="sourcePoint" />
            <mxPoint x="200" y="-320" as="targetPoint" />
          </mxGeometry>
        </mxCell>
        <mxCell id="1yXtOOQDGPh8vudGGYga-2" value="Extends" style="endArrow=block;endSize=16;endFill=0;html=1;rounded=0;exitX=0.5;exitY=0;exitDx=0;exitDy=0;entryX=1;entryY=1;entryDx=0;entryDy=0;" edge="1" parent="1" source="S_L64pyaiKB36YKx_55z-35" target="S_L64pyaiKB36YKx_55z-12">
          <mxGeometry width="160" relative="1" as="geometry">
            <mxPoint x="95" y="-204" as="sourcePoint" />
            <mxPoint x="186" y="-294" as="targetPoint" />
          </mxGeometry>
        </mxCell>
        <mxCell id="1yXtOOQDGPh8vudGGYga-3" value="???" style="text;html=1;align=center;verticalAlign=middle;resizable=0;points=[];autosize=1;strokeColor=none;fillColor=none;" vertex="1" parent="1">
          <mxGeometry x="200" y="-242" width="40" height="30" as="geometry" />
        </mxCell>
      </root>
    </mxGraphModel>
  </diagram>
</mxfile>
